HIERARCHY
ROOT SimulationBone
{
	OFFSET 0.000000 0.000000 0.000000
	CHANNELS 6 Xposition Yposition Zposition Zrotation Yrotation Xrotation 
	JOINT Hips
	{
		OFFSET 0.000000 0.000000 0.000000
		CHANNELS 6 Xposition Yposition Zposition Zrotation Yrotation Xrotation 
		JOINT RightUpLeg
		{
			OFFSET 0.103454 1.857841 10.548504
			CHANNELS 3 Zrotation Yrotation Xrotation
			JOINT RightLeg
			{
				OFFSET 43.499992 -0.000061 0.000000
				CHANNELS 3 Zrotation Yrotation Xrotation
				JOINT RightFoot
				{
					OFFSET 42.372196 0.000008 -0.000002
					CHANNELS 3 Zrotation Yrotation Xrotation
					JOINT RightToe
					{
						OFFSET 17.300022 0.000011 0.000012
						CHANNELS 3 Zrotation Yrotation Xrotation
						End Site
						{
							OFFSET 0.000000 0.000000 0.000000
						}
					}
				}
			}
		}
		JOINT LeftUpLeg
		{
			OFFSET 0.103458 1.857820 -10.548491
			CHANNELS 3 Zrotation Yrotation Xrotation
			JOINT LeftLeg
			{
				OFFSET 43.500046 0.000015 0.000006
				CHANNELS 3 Zrotation Yrotation Xrotation
				JOINT LeftFoot
				{
					OFFSET 42.372269 -0.000046 0.000017
					CHANNELS 3 Zrotation Yrotation Xrotation
					JOINT LeftToe
					{
						OFFSET 17.300032 0.000011 0.000015
						CHANNELS 3 Zrotation Yrotation Xrotation
						End Site
						{
							OFFSET 0.000000 0.000000 0.000000
						}
					}
				}
			}
		}
		JOINT Spine
		{
			OFFSET 6.901962 -2.603707 -0.000004
			CHANNELS 3 Zrotation Yrotation Xrotation
			JOINT Spine1
			{
				OFFSET 12.588104 -0.000004 -0.000001
				CHANNELS 3 Zrotation Yrotation Xrotation
				JOINT Spine2
				{
					OFFSET 12.343199 -0.000026 0.000003
					CHANNELS 3 Zrotation Yrotation Xrotation
					JOINT Neck
					{
						OFFSET 25.832890 0.000004 -0.000006
						CHANNELS 3 Zrotation Yrotation Xrotation
						JOINT Head
						{
							OFFSET 11.766623 0.000031 0.000004
							CHANNELS 3 Zrotation Yrotation Xrotation
							End Site
							{
								OFFSET 0.000000 0.000000 0.000000
							}
						}
					}
					JOINT RightShoulder
					{
						OFFSET 19.745897 -1.480345 6.000100
						CHANNELS 3 Zrotation Yrotation Xrotation
						JOINT RightArm
						{
							OFFSET 11.284126 0.000003 -0.000015
							CHANNELS 3 Zrotation Yrotation Xrotation
							JOINT RightForeArm
							{
								OFFSET 33.000057 -0.000023 0.000027
								CHANNELS 3 Zrotation Yrotation Xrotation
								JOINT RightHand
								{
									OFFSET 25.199987 0.000051 0.000021
									CHANNELS 3 Zrotation Yrotation Xrotation
									End Site
									{
										OFFSET 0.000000 0.000000 0.000000
									}
								}
							}
						}
					}
					JOINT LeftShoulder
					{
						OFFSET 19.746086 -1.480362 -6.000076
						CHANNELS 3 Zrotation Yrotation Xrotation
						JOINT LeftArm
						{
							OFFSET 11.284140 0.000004 -0.000015
							CHANNELS 3 Zrotation Yrotation Xrotation
							JOINT LeftForeArm
							{
								OFFSET 33.000084 -0.000023 0.000011
								CHANNELS 3 Zrotation Yrotation Xrotation
								JOINT LeftHand
								{
									OFFSET 25.199789 0.000148 0.000422
									CHANNELS 3 Zrotation Yrotation Xrotation
									End Site
									{
										OFFSET 0.000000 0.000000 0.000000
									}
								}
							}
						}
					}
				}
			}
		}
	}
}
MOTION
Frames: 6
Frame Time: 0.016667
-243.820774 0.000000 540.477295 0.000000 80.245021 0.000000 0.968916 91.554611 -0.467865 95.784176 0.948174 -179.032778 -175.381335 -6.124002 171.486543 -14.460515 -2.468151 -8.163191 78.666846 4.543478 -5.325329 21.454558 0.003114 0.000019 -176.511144 -0.160602 -176.455041 -11.746580 1.187945 9.044536 74.360350 -5.657964 2.810910 21.454555 -0.003094 0.000001 8.083497 1.169793 -0.478717 6.145645 2.363299 -0.895096 5.827282 2.357698 -0.909348 2.895881 9.530462 6.317267 -14.602857 -15.966742 13.405792 -160.193302 -71.638108 -21.755965 0.542067 60.831432 33.855051 -32.434580 -16.587755 1.407469 7.430251 1.284418 14.809281 -162.597980 73.797697 19.300187 -16.410340 -55.163331 -23.243334 -32.528266 15.112422 -1.288075 9.029047 4.338206 -42.691376 
-243.687844 0.000000 540.524627 0.000000 80.708741 0.000000 0.983980 91.544283 -0.486589 95.803271 0.976695 -179.409309 -175.464632 -6.190891 171.509054 -14.622271 -2.435192 -8.118066 78.675726 4.494007 -5.395282 21.454554 0.003108 0.000019 -176.519107 -0.226160 -176.452514 -11.816752 1.190506 9.101264 74.416524 -5.709763 2.769245 21.454552 -0.003101 0.000000 8.085329 1.197614 -0.480922 6.149514 2.419008 -0.897990 5.831151 2.413408 -0.912600 2.921728 9.457818 6.316456 -14.582758 -15.988407 13.396160 -160.099101 -71.557373 -21.854016 -0.447709 60.546375 33.299019 -32.659583 -16.625946 1.414694 7.377648 0.958530 14.546635 -162.962712 73.961187 18.924498 -17.419202 -54.774089 -23.095670 -32.908029 15.244989 -1.304577 8.820237 4.066418 -42.890718 
-243.546290 0.000000 540.575714 0.000000 81.149762 0.000000 0.999859 91.531013 -0.504955 95.828693 1.006406 -179.736683 -175.564385 -6.260606 171.513905 -14.813669 -2.369826 -8.048285 78.698272 4.424096 -5.477781 21.454555 0.003110 0.000020 -176.523480 -0.306710 -176.440780 -11.894868 1.187522 9.168597 74.479729 -5.768043 2.730252 21.454551 -0.003098 0.000001 8.086222 1.220432 -0.467728 6.151649 2.463932 -0.870387 5.833268 2.458496 -0.885267 2.966905 9.483451 6.258431 -14.569830 -16.017000 13.344973 -160.277805 -71.555238 -21.670215 -1.509858 60.356003 32.417829 -32.813792 -16.634641 1.418649 7.284878 0.629610 14.189753 -163.206946 74.031399 18.673407 -18.400146 -54.473782 -22.573513 -33.131877 15.341110 -1.315702 8.829694 3.868994 -42.406803 
-243.396789 0.000000 540.630259 0.000000 81.568488 0.000000 1.016219 91.515019 -0.521451 95.860281 1.036112 179.993002 -175.683610 -6.336782 171.515718 -15.036355 -2.281212 -7.956362 78.730368 4.336531 -5.568248 21.454556 0.003115 0.000021 -176.522066 -0.402079 -176.416472 -11.977170 1.179819 9.249660 74.548591 -5.835273 2.693052 21.454550 -0.003092 0.000002 8.087576 1.239866 -0.448772 6.154723 2.501800 -0.831437 5.836320 2.496588 -0.846535 3.010381 9.552675 6.167974 -14.549250 -16.012947 13.254671 -160.616095 -71.601150 -21.321581 -2.638849 60.239161 31.295017 -32.917424 -16.637303 1.421100 7.191594 0.346122 13.833283 -163.420939 74.043426 18.453916 -19.357785 -54.254300 -21.734381 -33.239924 15.395896 -1.321615 9.005355 3.748488 -41.405427 
-243.240016 0.000000 540.687968 0.000000 81.965343 0.000000 1.032689 91.496521 -0.534573 95.897907 1.064581 179.787630 -175.825366 -6.423000 171.529150 -15.291984 -2.178485 -7.844788 78.767885 4.234085 -5.662099 21.454558 0.003117 0.000020 -176.512688 -0.512096 -176.376234 -12.059905 1.168228 9.347578 74.621742 -5.913926 2.656759 21.454551 -0.003091 0.000002 8.090786 1.257533 -0.433692 6.161381 2.536341 -0.800285 5.842965 2.531310 -0.815588 3.031194 9.610723 6.069777 -14.506379 -15.936629 13.127782 -161.001300 -71.664719 -20.924487 -3.829993 60.175979 30.013588 -32.990738 -16.657382 1.423951 7.135910 0.157274 13.571331 -163.698965 74.031877 18.169013 -20.299292 -54.108760 -20.633878 -33.272381 15.404414 -1.322821 9.298316 3.704586 -40.051036 
-243.076646 0.000000 540.748544 0.000000 82.340765 0.000000 1.049295 91.475851 -0.543598 95.941070 1.090112 179.651696 -175.992006 -6.520697 171.565012 -15.581681 -2.068786 -7.715823 78.806089 4.119154 -5.755517 21.454557 0.003112 0.000018 -176.494074 -0.634421 -176.317470 -12.140369 1.155187 9.463700 74.698522 -6.005402 2.619951 21.454552 -0.003100 0.000000 8.096487 1.274672 -0.429778 6.172786 2.570407 -0.791422 5.854372 2.565434 -0.806942 3.017551 9.616865 5.981064 -14.433492 -15.766795 12.968354 -161.350487 -71.724617 -20.564526 -5.064527 60.154563 28.652110 -33.052724 -16.717326 1.429095 7.140179 0.077827 13.465068 -164.105611 74.023777 17.752229 -21.231743 -54.036158 -19.327195 -33.260540 15.370760 -1.320381 9.644565 3.728882 -38.543354 
